<svg width="129" height="91" viewBox="0 0 129 91" fill="none" xmlns="http://www.w3.org/2000/svg">
<g filter="url(#filter0_d_211_1542)">
<mask id="path-1-outside-1_211_1542" maskUnits="userSpaceOnUse" x="3.47461" y="-0.272949" width="122" height="83" fill="black">
<rect fill="white" x="3.47461" y="-0.272949" width="122" height="83"/>
<path d="M4.99974 21.1816H15.0906V51.4543H4.99974V21.1816ZM45.3634 21.1816H55.4543V51.4543H45.3634V21.1816ZM25.1816 71.6361H15.0906V51.4543H25.1816V71.6361ZM25.1816 71.6361H35.2725V81.7271H25.1816V71.6361ZM35.2725 51.4543H45.3634V71.6361H35.2725V51.4543ZM93.6373 21.1816H73.4555V11.0907H93.6373V0.999776H103.728V71.6361H123.91V81.7271H73.4555V71.6361H93.6373V21.1816Z"/>
</mask>
<path d="M4.99974 21.1816V20.1816H3.99974V21.1816H4.99974ZM15.0906 21.1816H16.0906V20.1816H15.0906V21.1816ZM15.0906 51.4543V52.4543H16.0906V51.4543H15.0906ZM4.99974 51.4543H3.99974V52.4543H4.99974V51.4543ZM45.3634 21.1816V20.1816H44.3634V21.1816H45.3634ZM55.4543 21.1816H56.4543V20.1816H55.4543V21.1816ZM55.4543 51.4543V52.4543H56.4543V51.4543H55.4543ZM45.3634 51.4543H44.3634V52.4543H45.3634V51.4543ZM25.1816 71.6361V72.6361H26.1816V71.6361H25.1816ZM15.0906 71.6361H14.0906V72.6361H15.0906V71.6361ZM15.0906 51.4543V50.4543H14.0906V51.4543H15.0906ZM25.1816 51.4543H26.1816V50.4543H25.1816V51.4543ZM25.1816 71.6361V70.6361H24.1816V71.6361H25.1816ZM35.2725 71.6361H36.2725V70.6361H35.2725V71.6361ZM35.2725 81.7271V82.7271H36.2725V81.7271H35.2725ZM25.1816 81.7271H24.1816V82.7271H25.1816V81.7271ZM35.2725 51.4543V50.4543H34.2725V51.4543H35.2725ZM45.3634 51.4543H46.3634V50.4543H45.3634V51.4543ZM45.3634 71.6361V72.6361H46.3634V71.6361H45.3634ZM35.2725 71.6361H34.2725V72.6361H35.2725V71.6361ZM4.99974 22.1816H15.0906V20.1816H4.99974V22.1816ZM14.0906 21.1816V51.4543H16.0906V21.1816H14.0906ZM15.0906 50.4543H4.99974V52.4543H15.0906V50.4543ZM5.99974 51.4543V21.1816H3.99974V51.4543H5.99974ZM45.3634 22.1816H55.4543V20.1816H45.3634V22.1816ZM54.4543 21.1816V51.4543H56.4543V21.1816H54.4543ZM55.4543 50.4543H45.3634V52.4543H55.4543V50.4543ZM46.3634 51.4543V21.1816H44.3634V51.4543H46.3634ZM25.1816 70.6361H15.0906V72.6361H25.1816V70.6361ZM16.0906 71.6361V51.4543H14.0906V71.6361H16.0906ZM15.0906 52.4543H25.1816V50.4543H15.0906V52.4543ZM24.1816 51.4543V71.6361H26.1816V51.4543H24.1816ZM25.1816 72.6361H35.2725V70.6361H25.1816V72.6361ZM34.2725 71.6361V81.7271H36.2725V71.6361H34.2725ZM35.2725 80.7271H25.1816V82.7271H35.2725V80.7271ZM26.1816 81.7271V71.6361H24.1816V81.7271H26.1816ZM35.2725 52.4543H45.3634V50.4543H35.2725V52.4543ZM44.3634 51.4543V71.6361H46.3634V51.4543H44.3634ZM45.3634 70.6361H35.2725V72.6361H45.3634V70.6361ZM36.2725 71.6361V51.4543H34.2725V71.6361H36.2725ZM93.6373 21.1816H94.6373V20.1816H93.6373V21.1816ZM73.4555 21.1816H72.4555V22.1816H73.4555V21.1816ZM73.4555 11.0907V10.0907H72.4555V11.0907H73.4555ZM93.6373 11.0907V12.0907H94.6373V11.0907H93.6373ZM93.6373 0.999776V-0.000224113H92.6373V0.999776H93.6373ZM103.728 0.999776H104.728V-0.000224113H103.728V0.999776ZM103.728 71.6361H102.728V72.6361H103.728V71.6361ZM123.91 71.6361H124.91V70.6361H123.91V71.6361ZM123.91 81.7271V82.7271H124.91V81.7271H123.91ZM73.4555 81.7271H72.4555V82.7271H73.4555V81.7271ZM73.4555 71.6361V70.6361H72.4555V71.6361H73.4555ZM93.6373 71.6361V72.6361H94.6373V71.6361H93.6373ZM93.6373 20.1816H73.4555V22.1816H93.6373V20.1816ZM74.4555 21.1816V11.0907H72.4555V21.1816H74.4555ZM73.4555 12.0907H93.6373V10.0907H73.4555V12.0907ZM94.6373 11.0907V0.999776H92.6373V11.0907H94.6373ZM93.6373 1.99977H103.728V-0.000224113H93.6373V1.99977ZM102.728 0.999776V71.6361H104.728V0.999776H102.728ZM103.728 72.6361H123.91V70.6361H103.728V72.6361ZM122.91 71.6361V81.7271H124.91V71.6361H122.91ZM123.91 80.7271H73.4555V82.7271H123.91V80.7271ZM74.4555 81.7271V71.6361H72.4555V81.7271H74.4555ZM73.4555 72.6361H93.6373V70.6361H73.4555V72.6361ZM94.6373 71.6361V21.1816H92.6373V71.6361H94.6373Z" fill="white" mask="url(#path-1-outside-1_211_1542)"/>
</g>
<defs>
<filter id="filter0_d_211_1542" x="0" y="0" width="128.91" height="90.7271" filterUnits="userSpaceOnUse" color-interpolation-filters="sRGB">
<feFlood flood-opacity="0" result="BackgroundImageFix"/>
<feColorMatrix in="SourceAlpha" type="matrix" values="0 0 0 0 0 0 0 0 0 0 0 0 0 0 0 0 0 0 127 0" result="hardAlpha"/>
<feOffset dy="4"/>
<feGaussianBlur stdDeviation="2"/>
<feComposite in2="hardAlpha" operator="out"/>
<feColorMatrix type="matrix" values="0 0 0 0 0 0 0 0 0 0 0 0 0 0 0 0 0 0 0.25 0"/>
<feBlend mode="normal" in2="BackgroundImageFix" result="effect1_dropShadow_211_1542"/>
<feBlend mode="normal" in="SourceGraphic" in2="effect1_dropShadow_211_1542" result="shape"/>
</filter>
</defs>
</svg>
